<svg width="120" height="43" viewBox="0 0 120 43" fill="none" xmlns="http://www.w3.org/2000/svg">
<path fill-rule="evenodd" clip-rule="evenodd" d="M21.0291 0L0 21.0291L21.0729 42.102L42.102 21.0729L21.0291 0ZM24.7365 32.9954L20.9983 36.7328L15.8223 31.5568L16.2779 31.1011L21.0729 35.8954L25.8255 31.1428L21.0422 26.3522L21.0349 26.3441L16.2787 31.1004L6.20662 21.0283L16.2823 10.9526L20.9983 15.6687L22.0004 14.6674L25.7451 10.9227L21.0291 6.20589L16.2823 10.9526L15.8223 10.4926L21.0386 5.27628L26.2147 10.4531L25.7451 10.9227L35.8954 21.0722L25.8255 31.1428L26.2073 31.5239L24.7365 32.9954ZM21.0122 15.8362C21.8212 17.7583 23.3008 19.5473 26.2271 21.051C24.305 21.8 22.5152 23.2627 21.0108 26.2673C20.2882 24.3262 18.8678 22.5248 15.7967 21.0525C17.7349 20.2677 19.5363 18.8283 21.0122 15.8362Z" fill="#493E2C"/>
<path d="M59.2365 28.9446H56.8788V27.429H56.8367C56.542 27.9763 56.1 28.4184 55.5105 28.7552C54.9352 29.078 54.3457 29.2393 53.7423 29.2393C52.3108 29.2393 51.2723 28.8885 50.6268 28.1868C49.9953 27.4711 49.6795 26.3975 49.6795 24.9661V18.0615H52.0793V24.7345C52.0793 25.6888 52.2617 26.3624 52.6266 26.7554C52.9915 27.1483 53.5037 27.3448 54.1633 27.3448C54.6685 27.3448 55.0895 27.2676 55.4263 27.1132C55.7631 26.9589 56.0368 26.7554 56.2473 26.5028C56.4578 26.2361 56.6052 25.9204 56.6894 25.5555C56.7876 25.1906 56.8367 24.7977 56.8367 24.3766V18.0615H59.2365V28.9446Z" fill="#493E2C"/>
<path d="M61.7672 18.0615H64.0406V19.6613L64.0828 19.7034C64.4476 19.0999 64.9248 18.6298 65.5142 18.293C66.1036 17.9422 66.7562 17.7667 67.4719 17.7667C68.6648 17.7667 69.605 18.0755 70.2927 18.693C70.9803 19.3105 71.3242 20.2367 71.3242 21.4717V28.9446H68.9244V22.1032C68.8963 21.2471 68.7139 20.6296 68.3771 20.2507C68.0403 19.8578 67.514 19.6613 66.7983 19.6613C66.3913 19.6613 66.0264 19.7385 65.7037 19.8929C65.3809 20.0332 65.1072 20.2367 64.8827 20.5033C64.6581 20.7559 64.4827 21.0577 64.3564 21.4085C64.2301 21.7593 64.167 22.1312 64.167 22.5242V28.9446H61.7672V18.0615Z" fill="#493E2C"/>
<path d="M73.918 13.9145H76.3178V16.1879H73.918V13.9145ZM73.918 18.0615H76.3178V28.9446H73.918V18.0615Z" fill="#493E2C"/>
<path d="M78.9957 13.9145H81.3954V22.461L85.7319 18.0615H88.6789L84.5109 22.0611L89.0789 28.9446H86.1529L82.8269 23.6609L81.3954 25.0503V28.9446H78.9957V13.9145Z" fill="#493E2C"/>
<path d="M99.796 28.9446H97.4383V27.429H97.3962C97.1015 27.9763 96.6594 28.4184 96.07 28.7552C95.4946 29.078 94.9052 29.2393 94.3018 29.2393C92.8703 29.2393 91.8318 28.8885 91.1863 28.1868C90.5548 27.4711 90.239 26.3975 90.239 24.9661V18.0615H92.6388V24.7345C92.6388 25.6888 92.8212 26.3624 93.1861 26.7554C93.551 27.1483 94.0632 27.3448 94.7228 27.3448C95.228 27.3448 95.649 27.2676 95.9858 27.1132C96.3226 26.9589 96.5963 26.7554 96.8068 26.5028C97.0173 26.2361 97.1647 25.9204 97.2489 25.5555C97.3471 25.1906 97.3962 24.7977 97.3962 24.3766V18.0615H99.796V28.9446Z" fill="#493E2C"/>
<path d="M102.327 18.0615H104.579V20.1665H104.621C104.691 19.8718 104.825 19.5841 105.021 19.3034C105.232 19.0228 105.477 18.7702 105.758 18.5456C106.053 18.307 106.375 18.1176 106.726 17.9772C107.077 17.8369 107.435 17.7667 107.8 17.7667C108.081 17.7667 108.27 17.7738 108.368 17.7878C108.48 17.8018 108.593 17.8159 108.705 17.8299V20.1455C108.537 20.1174 108.361 20.0963 108.179 20.0823C108.01 20.0542 107.842 20.0402 107.674 20.0402C107.267 20.0402 106.881 20.1244 106.516 20.2928C106.165 20.4472 105.856 20.6858 105.59 21.0085C105.323 21.3173 105.112 21.7032 104.958 22.1663C104.804 22.6294 104.726 23.1627 104.726 23.7662V28.9446H102.327V18.0615Z" fill="#493E2C"/>
<path d="M118.842 26.5238C118.842 26.8185 118.877 27.029 118.947 27.1553C119.032 27.2816 119.186 27.3448 119.411 27.3448C119.481 27.3448 119.565 27.3448 119.663 27.3448C119.761 27.3448 119.874 27.3308 120 27.3027V28.9657C119.916 28.9937 119.804 29.0218 119.663 29.0499C119.537 29.092 119.404 29.1271 119.263 29.1551C119.123 29.1832 118.983 29.2043 118.842 29.2183C118.702 29.2323 118.583 29.2393 118.484 29.2393C117.993 29.2393 117.586 29.1411 117.263 28.9446C116.941 28.7482 116.73 28.4043 116.632 27.9132C116.155 28.3763 115.565 28.7131 114.864 28.9236C114.176 29.1341 113.509 29.2393 112.864 29.2393C112.373 29.2393 111.903 29.1692 111.453 29.0288C111.004 28.9025 110.604 28.7131 110.254 28.4605C109.917 28.1938 109.643 27.864 109.433 27.4711C109.236 27.0641 109.138 26.594 109.138 26.0607C109.138 25.3871 109.257 24.8398 109.496 24.4187C109.748 23.9977 110.071 23.6679 110.464 23.4294C110.871 23.1908 111.32 23.0224 111.811 22.9241C112.317 22.8119 112.822 22.7277 113.327 22.6715C113.762 22.5873 114.176 22.5312 114.569 22.5031C114.962 22.461 115.306 22.3979 115.6 22.3137C115.909 22.2295 116.148 22.1032 116.316 21.9348C116.499 21.7523 116.59 21.4857 116.59 21.1348C116.59 20.8261 116.513 20.5735 116.358 20.377C116.218 20.1806 116.035 20.0332 115.811 19.935C115.6 19.8227 115.362 19.7525 115.095 19.7245C114.829 19.6824 114.576 19.6613 114.337 19.6613C113.664 19.6613 113.109 19.8016 112.674 20.0823C112.239 20.363 111.994 20.798 111.938 21.3875H109.538C109.58 20.6858 109.748 20.1034 110.043 19.6402C110.338 19.1771 110.71 18.8052 111.159 18.5246C111.622 18.2439 112.141 18.0474 112.716 17.9352C113.292 17.8229 113.881 17.7667 114.485 17.7667C115.018 17.7667 115.544 17.8229 116.064 17.9352C116.583 18.0474 117.046 18.2299 117.453 18.4825C117.874 18.7351 118.211 19.0649 118.463 19.4718C118.716 19.8648 118.842 20.349 118.842 20.9243V26.5238ZM116.442 23.4925C116.078 23.7311 115.628 23.8784 115.095 23.9346C114.562 23.9767 114.029 24.0469 113.495 24.1451C113.243 24.1872 112.997 24.2503 112.759 24.3345C112.52 24.4047 112.309 24.51 112.127 24.6503C111.945 24.7766 111.797 24.952 111.685 25.1766C111.587 25.3871 111.538 25.6467 111.538 25.9554C111.538 26.2221 111.615 26.4466 111.769 26.6291C111.924 26.8115 112.106 26.9589 112.317 27.0711C112.541 27.1694 112.78 27.2395 113.032 27.2816C113.299 27.3237 113.537 27.3448 113.748 27.3448C114.015 27.3448 114.302 27.3097 114.611 27.2395C114.92 27.1694 115.207 27.0501 115.474 26.8817C115.755 26.7133 115.986 26.5028 116.169 26.2502C116.351 25.9835 116.442 25.6607 116.442 25.2818V23.4925Z" fill="#493E2C"/>
</svg>
